<?xml version="1.0" encoding="utf-8"?>
<!-- Generator: Adobe Illustrator 24.3.0, SVG Export Plug-In . SVG Version: 6.00 Build 0)  -->
<svg version="1.1" id="Layer_1" xmlns="http://www.w3.org/2000/svg" xmlns:xlink="http://www.w3.org/1999/xlink" x="0px" y="0px"
	 viewBox="0 0 512 512" style="enable-background:new 0 0 512 512;" xml:space="preserve">
<style type="text/css">
	.st0{fill:#3E77BC;}
	.st1{fill:none;stroke:#000000;stroke-miterlimit:10;}
	.st2{fill:#FFFFFF;}
	.st3{fill:#3563AD;}
</style>
<path class="st0" d="M227.1,149.45l6.25-4.23l8.96-2.03h31.77c0,0,15.04,1.52,22.31,22.65l10.14,23.66l32.11,72.17l9.63,21.63
	l-0.68,16.06c0,0-3.72,11.15-14.54,15.55l-21.8,13.69h-13.18l-41.18-33.13l-40.96,33.13c0,0-16.56,2.87-21.3-4.39l-22.82-14.2
	c0,0-15.89-13.35-3.21-36.85l34.48-77.24l19.77-41.92L227.1,149.45z"/>
<path class="st1" d="M293.69,277.35"/>
<path class="st2" d="M200.99,291l46.99-37.61c0,0,15.21-6.34,22.82,4.23L311.27,291L256.9,172.44L200.99,291z"/>
<path class="st1" d="M199.97,292.52"/>
<path class="st3" d="M195.09,317.16c0.79-4.34,1.89-8.6,3.02-12.87c0.1-0.38,0.23-0.73,0.39-1.04c0.04-0.62,0.17-1.24,0.41-1.81
	c0.04-0.21,0.08-0.42,0.15-0.63c0.71-2.33,1.75-4.5,2.41-6.87c0.41-1.46,0.82-2.79,1.32-4.11c-0.26,0.04-0.53,0.07-0.82,0.07
	c-0.2,0-0.4-0.01-0.59-0.03c-0.2,0.18-0.32,0.29-0.32,0.29s-9.55,16.73-6.51,30C194.54,320.05,194.72,318.94,195.09,317.16z"/>
<path class="st3" d="M256.9,295.61l2.94,2.15c0,0,20.66-21.42,35.37-19.27c0,0-16.99-5.2-37.65,16.35"/>
<path class="st3" d="M311.15,291.49c8.69,6.17,22.56,11.29,33.25,9.82"/>
<path class="st3" d="M344.4,300.63c-12.49-1.99-27.49-4.99-35.66-16.14c0.7,1.95,1.13,2.82,0,0c0.7,1.95,1.48,3.96,1.78,6.02"/>
<path class="st3" d="M229.81,149.87c0,0,19.13,3.21,27.1,23.15C256.9,174.04,234.96,150.89,229.81,149.87z"/>
</svg>
